<svg id="Layer_1" data-name="Layer 1" xmlns="http://www.w3.org/2000/svg" viewBox="0 0 486 486"><defs><style>.cls-1{fill:none;stroke:#231f20;stroke-miterlimit:10;stroke-width:9px;}.cls-2{fill:#231f20;}</style></defs><circle class="cls-1" cx="243" cy="244.17" r="234"/><path class="cls-2" d="M216.08,357.33V459.55c-106.55-13.92-188.82-105-188.82-215.38S109.53,42.71,216.08,28.78V131H161.26V357.37Z"/><path class="cls-2" d="M243,411.85v49.29a216,216,0,0,0,83.72-21.33V383.14A167.11,167.11,0,0,1,243,411.85Z"/><path class="cls-2" d="M243,27.2V76.49a167,167,0,0,1,83.72,28.71V48.53A216,216,0,0,0,243,27.2Z"/><path class="cls-2" d="M325.5,320.84v-47q0-20.08-6.88-28.57-8.79-10.76-32.84-11.88h-.39q22.16-1.12,32.47-14.71,7.63-10.19,7.64-24.33V173.44Q325.5,131,261,131H243v22.91h14.36q21.15,0,21.16,20.65v34.8q0,20.65-21.16,20.65H243v16.13h7.18q18.88,0,24.94,10.75,3.39,6.23,3.4,21.22v54q0,15.28,5.77,25.18H332A99.75,99.75,0,0,1,325.5,320.84Z"/></svg>